<svg width="580" height="527" viewBox="0 0 580 527" fill="none" xmlns="http://www.w3.org/2000/svg">
<g filter="url(#filter0_d)">
<rect x="4" y="84.1816" width="280" height="450" rx="50" transform="rotate(-15 4 84.1816)" fill="white"/>
</g>
<path d="M132.841 207.053C133.477 209.956 133.384 212.701 132.56 215.287C131.732 217.855 130.196 220.086 127.954 221.981C125.731 223.87 122.978 225.255 119.695 226.135C114.281 227.586 109.544 226.964 105.486 224.27C101.428 221.576 98.5371 217.013 96.8134 210.58L96.2674 208.542C95.1856 204.505 94.9384 200.79 95.5256 197.397C96.1267 193.981 97.5279 191.098 99.7293 188.749C101.926 186.381 104.76 184.732 108.231 183.802C113.23 182.463 117.602 182.706 121.348 184.534C125.088 186.342 127.784 189.502 129.438 194.013L119.533 196.667C118.786 194.178 117.671 192.545 116.189 191.77C114.707 190.994 112.75 190.932 110.316 191.584C107.845 192.246 106.281 193.656 105.626 195.813C104.97 197.971 105.158 201.085 106.188 205.156L106.969 208.071C108.147 212.467 109.536 215.461 111.135 217.054C112.754 218.643 114.912 219.076 117.61 218.353C119.893 217.741 121.494 216.736 122.413 215.337C123.332 213.938 123.516 212.059 122.965 209.699L132.841 207.053ZM162.617 205.777L149.006 209.425L148.691 217.759L138.079 220.602L142.15 175.35L151.489 172.848L177.754 209.971L167.085 212.83L162.617 205.777ZM149.328 201.119L158.185 198.745L149.913 185.645L149.328 201.119ZM192.194 190.512L186.817 191.953L190.714 206.499L180.782 209.16L169.741 167.957L185.957 163.612C190.843 162.303 194.954 162.364 198.289 163.796C201.625 165.227 203.824 167.924 204.885 171.886C205.654 174.753 205.706 177.287 205.042 179.487C204.396 181.682 202.995 183.696 200.837 185.527L213.891 199.834L214.004 200.258L203.364 203.109L192.194 190.512ZM184.762 184.284L191.044 182.601C192.931 182.095 194.215 181.226 194.895 179.992C195.589 178.734 195.699 177.219 195.224 175.445C194.748 173.672 193.896 172.414 192.666 171.672C191.431 170.911 189.879 170.781 188.011 171.281L181.729 172.965L184.762 184.284ZM218.589 199.03L207.548 157.827L220.82 154.271C224.462 153.295 227.957 153.248 231.307 154.13C234.652 154.993 237.541 156.716 239.972 159.3C242.417 161.86 244.149 165.005 245.169 168.735L245.677 170.631C246.688 174.404 246.794 178.006 245.994 181.435C245.208 184.84 243.59 187.781 241.139 190.258C238.703 192.71 235.704 194.423 232.144 195.398L218.589 199.03ZM219.536 162.834L226.474 188.728L229.927 187.803C232.775 187.039 234.693 185.444 235.681 183.015C236.663 180.568 236.618 177.345 235.546 173.346L235.069 171.563C234.002 167.582 232.434 164.787 230.365 163.178C228.296 161.569 225.799 161.156 222.875 161.94L219.536 162.834Z" fill="black"/>
<g filter="url(#filter1_d)">
<rect x="305" width="280" height="450" rx="50" transform="rotate(15 305 0)" fill="black"/>
</g>
<path d="M325.163 154.145L335.067 156.799L327.492 185.07C326.79 187.692 325.55 189.867 323.773 191.595C322.014 193.328 319.889 194.467 317.397 195.012C314.925 195.563 312.349 195.479 309.67 194.762C305.18 193.558 301.993 191.491 300.109 188.56C298.225 185.629 297.84 182.088 298.952 177.938L308.913 180.607C308.407 182.493 308.362 183.947 308.776 184.968C309.208 185.994 310.189 186.711 311.717 187.121C313.094 187.49 314.287 187.264 315.296 186.442C316.329 185.607 317.093 184.264 317.588 182.416L325.163 154.145ZM340.893 202.521L330.989 199.867L342.029 158.665L351.933 161.318L340.893 202.521ZM360.995 199.718L380.691 204.996L378.644 212.636L346.553 204.038L347.956 198.802L375.178 175.766L355.425 170.474L357.48 162.805L389.486 171.381L388.121 176.474L360.995 199.718ZM396.368 209.197L416.064 214.474L414.017 222.115L381.926 213.516L383.329 208.281L410.551 185.244L390.798 179.952L392.853 172.283L424.859 180.859L423.494 185.953L396.368 209.197ZM448.777 212.715L433.156 208.529L430.525 218.349L448.975 223.293L446.928 230.933L418.545 223.328L429.585 182.125L458.025 189.746L455.97 197.415L437.463 192.455L435.135 201.143L450.756 205.329L448.777 212.715ZM470.182 221.574L464.805 220.133L460.908 234.679L450.975 232.017L462.015 190.815L478.23 195.16C483.116 196.469 486.646 198.577 488.819 201.485C490.992 204.392 491.548 207.827 490.486 211.789C489.718 214.657 488.496 216.877 486.821 218.45C485.165 220.028 482.944 221.071 480.159 221.579L484.311 240.495L484.197 240.919L473.557 238.068L470.182 221.574ZM466.86 212.465L473.142 214.148C475.029 214.653 476.575 214.542 477.781 213.814C479.011 213.072 479.864 211.814 480.339 210.041C480.814 208.267 480.705 206.752 480.011 205.494C479.321 204.217 478.043 203.329 476.175 202.828L469.893 201.145L466.86 212.465Z" fill="white"/>
<defs>
<filter id="filter0_d" x="0" y="11.7123" width="394.928" height="515.136" filterUnits="userSpaceOnUse" color-interpolation-filters="sRGB">
<feFlood flood-opacity="0" result="BackgroundImageFix"/>
<feColorMatrix in="SourceAlpha" type="matrix" values="0 0 0 0 0 0 0 0 0 0 0 0 0 0 0 0 0 0 127 0"/>
<feOffset dy="4"/>
<feGaussianBlur stdDeviation="2"/>
<feColorMatrix type="matrix" values="0 0 0 0 0 0 0 0 0 0 0 0 0 0 0 0 0 0 0.25 0"/>
<feBlend mode="normal" in2="BackgroundImageFix" result="effect1_dropShadow"/>
<feBlend mode="normal" in="SourceGraphic" in2="effect1_dropShadow" result="shape"/>
</filter>
<filter id="filter1_d" x="184.531" y="0" width="394.928" height="515.136" filterUnits="userSpaceOnUse" color-interpolation-filters="sRGB">
<feFlood flood-opacity="0" result="BackgroundImageFix"/>
<feColorMatrix in="SourceAlpha" type="matrix" values="0 0 0 0 0 0 0 0 0 0 0 0 0 0 0 0 0 0 127 0"/>
<feOffset dy="4"/>
<feGaussianBlur stdDeviation="2"/>
<feColorMatrix type="matrix" values="0 0 0 0 0 0 0 0 0 0 0 0 0 0 0 0 0 0 0.25 0"/>
<feBlend mode="normal" in2="BackgroundImageFix" result="effect1_dropShadow"/>
<feBlend mode="normal" in="SourceGraphic" in2="effect1_dropShadow" result="shape"/>
</filter>
</defs>
</svg>
