<svg width="572" height="519" viewBox="0 0 572 519" fill="none" xmlns="http://www.w3.org/2000/svg">
<rect y="84.1816" width="280" height="450" rx="50" transform="rotate(-15 0 84.1816)" fill="white"/>
<path d="M118.841 207.053C119.477 209.956 119.384 212.701 118.56 215.287C117.732 217.855 116.196 220.086 113.954 221.981C111.731 223.87 108.978 225.255 105.695 226.135C100.281 227.586 95.5444 226.964 91.4862 224.27C87.4281 221.576 84.5371 217.013 82.8134 210.58L82.2674 208.542C81.1856 204.505 80.9384 200.79 81.5256 197.397C82.1267 193.981 83.5279 191.098 85.7293 188.749C87.9257 186.381 90.7595 184.732 94.2308 183.802C99.2302 182.463 103.602 182.706 107.348 184.534C111.088 186.342 113.784 189.502 115.438 194.013L105.533 196.667C104.786 194.178 103.671 192.545 102.189 191.77C100.707 190.994 98.7497 190.932 96.316 191.584C93.8446 192.246 92.2812 193.656 91.6258 195.813C90.9704 197.971 91.1578 201.085 92.188 205.156L92.969 208.071C94.1469 212.467 95.5356 215.461 97.1354 217.054C98.7539 218.643 100.912 219.076 103.61 218.353C105.893 217.741 107.494 216.736 108.413 215.337C109.332 213.938 109.516 212.059 108.965 209.699L118.841 207.053ZM148.617 205.777L135.006 209.425L134.691 217.759L124.079 220.602L128.15 175.35L137.489 172.848L163.754 209.971L153.085 212.83L148.617 205.777ZM135.328 201.119L144.185 198.745L135.913 185.645L135.328 201.119ZM178.194 190.512L172.817 191.953L176.714 206.499L166.782 209.16L155.741 167.957L171.957 163.612C176.843 162.303 180.954 162.364 184.289 163.796C187.625 165.227 189.824 167.924 190.885 171.886C191.654 174.753 191.706 177.287 191.042 179.487C190.396 181.682 188.995 183.696 186.837 185.527L199.891 199.834L200.004 200.258L189.364 203.109L178.194 190.512ZM170.762 184.284L177.044 182.601C178.931 182.095 180.215 181.226 180.895 179.992C181.589 178.734 181.699 177.219 181.224 175.445C180.748 173.672 179.896 172.414 178.666 171.672C177.431 170.911 175.879 170.781 174.011 171.281L167.729 172.965L170.762 184.284ZM204.589 199.03L193.548 157.827L206.82 154.271C210.462 153.295 213.957 153.248 217.307 154.13C220.652 154.993 223.541 156.716 225.972 159.3C228.417 161.86 230.149 165.005 231.169 168.735L231.677 170.631C232.688 174.404 232.794 178.006 231.994 181.435C231.208 184.84 229.59 187.781 227.139 190.258C224.703 192.71 221.704 194.423 218.144 195.398L204.589 199.03ZM205.536 162.834L212.474 188.728L215.927 187.803C218.775 187.039 220.693 185.444 221.681 183.015C222.663 180.568 222.618 177.345 221.546 173.346L221.069 171.563C220.002 167.582 218.434 164.787 216.365 163.178C214.296 161.569 211.799 161.156 208.875 161.94L205.536 162.834Z" fill="black"/>
<rect x="301" width="280" height="450" rx="50" transform="rotate(15 301 0)" fill="black"/>
<path d="M307.163 212.145L317.067 214.799L309.492 243.07C308.79 245.692 307.55 247.867 305.773 249.595C304.014 251.328 301.889 252.467 299.397 253.012C296.925 253.563 294.349 253.479 291.67 252.762C287.18 251.558 283.993 249.491 282.109 246.56C280.225 243.629 279.84 240.088 280.952 235.938L290.913 238.607C290.407 240.493 290.362 241.947 290.776 242.968C291.208 243.994 292.189 244.711 293.717 245.121C295.094 245.49 296.287 245.264 297.296 244.442C298.329 243.607 299.093 242.264 299.588 240.416L307.163 212.145ZM322.893 260.521L312.989 257.867L324.029 216.665L333.933 219.318L322.893 260.521ZM342.995 257.718L362.691 262.996L360.644 270.636L328.553 262.038L329.956 256.802L357.178 233.766L337.425 228.474L339.48 220.805L371.486 229.381L370.121 234.474L342.995 257.718ZM378.368 267.197L398.064 272.474L396.017 280.115L363.926 271.516L365.329 266.281L392.551 243.244L372.798 237.952L374.853 230.283L406.859 238.859L405.494 243.953L378.368 267.197ZM430.777 270.715L415.156 266.529L412.525 276.349L430.975 281.293L428.928 288.933L400.545 281.328L411.585 240.125L440.025 247.746L437.97 255.415L419.463 250.455L417.135 259.143L432.756 263.329L430.777 270.715ZM452.182 279.574L446.805 278.133L442.908 292.679L432.975 290.017L444.015 248.815L460.23 253.16C465.116 254.469 468.646 256.577 470.819 259.485C472.992 262.392 473.548 265.827 472.486 269.789C471.718 272.657 470.496 274.877 468.821 276.45C467.165 278.028 464.944 279.071 462.159 279.579L466.311 298.495L466.197 298.919L455.557 296.068L452.182 279.574ZM448.86 270.465L455.142 272.148C457.029 272.653 458.575 272.542 459.781 271.814C461.011 271.072 461.864 269.814 462.339 268.041C462.814 266.267 462.705 264.752 462.011 263.494C461.321 262.217 460.043 261.329 458.175 260.828L451.893 259.145L448.86 270.465Z" fill="white"/>
</svg>
