<svg width="580" height="527" viewBox="0 0 580 527" fill="none" xmlns="http://www.w3.org/2000/svg">
<g filter="url(#filter0_d)">
<rect x="4" y="84.1816" width="280" height="450" rx="50" transform="rotate(-15 4 84.1816)" fill="white"/>
<rect x="4.18371" y="84.2877" width="279.7" height="449.7" rx="49.85" transform="rotate(-15 4.18371 84.2877)" stroke="black" stroke-width="0.3"/>
</g>
<path d="M132.841 207.053C133.477 209.956 133.384 212.701 132.56 215.287C131.732 217.855 130.196 220.086 127.954 221.981C125.731 223.87 122.978 225.255 119.695 226.135C114.281 227.586 109.544 226.964 105.486 224.27C101.428 221.576 98.5371 217.013 96.8134 210.58L96.2674 208.542C95.1856 204.505 94.9384 200.79 95.5256 197.397C96.1267 193.981 97.5279 191.098 99.7293 188.749C101.926 186.381 104.76 184.732 108.231 183.802C113.23 182.463 117.602 182.706 121.348 184.534C125.088 186.342 127.784 189.502 129.438 194.013L119.533 196.667C118.786 194.178 117.671 192.545 116.189 191.77C114.707 190.994 112.75 190.932 110.316 191.584C107.845 192.246 106.281 193.656 105.626 195.813C104.97 197.971 105.158 201.085 106.188 205.156L106.969 208.071C108.147 212.467 109.536 215.461 111.135 217.054C112.754 218.643 114.912 219.076 117.61 218.353C119.893 217.741 121.494 216.736 122.413 215.337C123.332 213.938 123.516 212.059 122.965 209.699L132.841 207.053ZM162.617 205.777L149.006 209.425L148.691 217.759L138.079 220.602L142.15 175.35L151.489 172.848L177.754 209.971L167.085 212.83L162.617 205.777ZM149.328 201.119L158.185 198.745L149.913 185.645L149.328 201.119ZM192.194 190.512L186.817 191.953L190.714 206.499L180.782 209.16L169.741 167.957L185.957 163.612C190.843 162.303 194.954 162.364 198.289 163.796C201.625 165.227 203.824 167.924 204.885 171.886C205.654 174.753 205.706 177.287 205.042 179.487C204.396 181.682 202.995 183.696 200.837 185.527L213.891 199.834L214.004 200.258L203.364 203.109L192.194 190.512ZM184.762 184.284L191.044 182.601C192.931 182.095 194.215 181.226 194.895 179.992C195.589 178.734 195.699 177.219 195.224 175.445C194.748 173.672 193.896 172.414 192.666 171.672C191.431 170.911 189.879 170.781 188.011 171.281L181.729 172.965L184.762 184.284ZM218.589 199.03L207.548 157.827L220.82 154.271C224.462 153.295 227.957 153.248 231.307 154.13C234.652 154.993 237.541 156.716 239.972 159.3C242.417 161.86 244.149 165.005 245.169 168.735L245.677 170.631C246.688 174.404 246.794 178.006 245.994 181.435C245.208 184.84 243.59 187.781 241.139 190.258C238.703 192.71 235.704 194.423 232.144 195.398L218.589 199.03ZM219.536 162.834L226.474 188.728L229.927 187.803C232.775 187.039 234.693 185.444 235.681 183.015C236.663 180.568 236.618 177.345 235.546 173.346L235.069 171.563C234.002 167.582 232.434 164.787 230.365 163.178C228.296 161.569 225.799 161.156 222.875 161.94L219.536 162.834Z" fill="black"/>
<g filter="url(#filter1_d)">
<rect x="305" width="280" height="450" rx="50" transform="rotate(15 305 0)" fill="black"/>
<rect x="305.106" y="0.183712" width="279.7" height="449.7" rx="49.85" transform="rotate(15 305.106 0.183712)" stroke="black" stroke-width="0.3"/>
</g>
<path d="M326.163 157.145L336.067 159.799L328.492 188.07C327.79 190.692 326.55 192.867 324.773 194.595C323.014 196.328 320.889 197.467 318.397 198.012C315.925 198.563 313.349 198.479 310.67 197.762C306.18 196.558 302.993 194.491 301.109 191.56C299.225 188.629 298.84 185.088 299.952 180.938L309.913 183.607C309.407 185.493 309.362 186.947 309.776 187.968C310.208 188.994 311.189 189.711 312.717 190.121C314.094 190.49 315.287 190.264 316.296 189.442C317.329 188.607 318.093 187.264 318.588 185.416L326.163 157.145ZM341.893 205.521L331.989 202.867L343.029 161.665L352.933 164.318L341.893 205.521ZM361.995 202.718L381.691 207.996L379.644 215.636L347.553 207.038L348.956 201.802L376.178 178.766L356.425 173.474L358.48 165.805L390.486 174.381L389.121 179.474L361.995 202.718ZM397.368 212.197L417.064 217.474L415.017 225.115L382.926 216.516L384.329 211.281L411.551 188.244L391.798 182.952L393.853 175.283L425.859 183.859L424.494 188.953L397.368 212.197ZM449.777 215.715L434.156 211.529L431.525 221.349L449.975 226.293L447.928 233.933L419.545 226.328L430.585 185.125L459.025 192.746L456.97 200.415L438.463 195.455L436.135 204.143L451.756 208.329L449.777 215.715ZM471.182 224.574L465.805 223.133L461.908 237.679L451.975 235.017L463.015 193.815L479.23 198.16C484.116 199.469 487.646 201.577 489.819 204.485C491.992 207.392 492.548 210.827 491.486 214.789C490.718 217.657 489.496 219.877 487.821 221.45C486.165 223.028 483.944 224.071 481.159 224.579L485.311 243.495L485.197 243.919L474.557 241.068L471.182 224.574ZM467.86 215.465L474.142 217.148C476.029 217.653 477.575 217.542 478.781 216.814C480.011 216.072 480.864 214.814 481.339 213.041C481.814 211.267 481.705 209.752 481.011 208.494C480.321 207.217 479.043 206.329 477.175 205.828L470.893 204.145L467.86 215.465Z" fill="white"/>
<defs>
<filter id="filter0_d" x="0" y="11.7123" width="394.928" height="515.136" filterUnits="userSpaceOnUse" color-interpolation-filters="sRGB">
<feFlood flood-opacity="0" result="BackgroundImageFix"/>
<feColorMatrix in="SourceAlpha" type="matrix" values="0 0 0 0 0 0 0 0 0 0 0 0 0 0 0 0 0 0 127 0"/>
<feOffset dy="4"/>
<feGaussianBlur stdDeviation="2"/>
<feColorMatrix type="matrix" values="0 0 0 0 0 0 0 0 0 0 0 0 0 0 0 0 0 0 0.25 0"/>
<feBlend mode="normal" in2="BackgroundImageFix" result="effect1_dropShadow"/>
<feBlend mode="normal" in="SourceGraphic" in2="effect1_dropShadow" result="shape"/>
</filter>
<filter id="filter1_d" x="184.531" y="0" width="394.928" height="515.136" filterUnits="userSpaceOnUse" color-interpolation-filters="sRGB">
<feFlood flood-opacity="0" result="BackgroundImageFix"/>
<feColorMatrix in="SourceAlpha" type="matrix" values="0 0 0 0 0 0 0 0 0 0 0 0 0 0 0 0 0 0 127 0"/>
<feOffset dy="4"/>
<feGaussianBlur stdDeviation="2"/>
<feColorMatrix type="matrix" values="0 0 0 0 0 0 0 0 0 0 0 0 0 0 0 0 0 0 0.25 0"/>
<feBlend mode="normal" in2="BackgroundImageFix" result="effect1_dropShadow"/>
<feBlend mode="normal" in="SourceGraphic" in2="effect1_dropShadow" result="shape"/>
</filter>
</defs>
</svg>
